<svg xmlns="http://www.w3.org/2000/svg" width="1300" height="819" fill="none">
	<path fill="#000" d="M0 0h1300v819H0z" />
	<path
		fill="#fff"
		d="M221.539 617.625c4.2 0 7.545 1.02 10.035 3.06 2.52 2.04 4.335 4.92 5.445 8.64 1.11 3.69 1.665 8.01 1.665 12.96 0 4.77-.675 9.03-2.025 12.78-1.32 3.72-3.33 6.645-6.03 8.775-2.7 2.13-6.105 3.195-10.215 3.195-5.19 0-9.36-1.83-12.51-5.49v22.59l-7.56.945v-66.465h6.435l.63 6.615c1.74-2.43 3.81-4.305 6.21-5.625 2.43-1.32 5.07-1.98 7.92-1.98Zm-1.8 6.075c-2.61 0-4.92.795-6.93 2.385-1.98 1.56-3.615 3.3-4.905 5.22v23.49c1.23 1.83 2.775 3.285 4.635 4.365 1.89 1.05 3.96 1.575 6.21 1.575 3.93 0 6.885-1.5 8.865-4.5 1.98-3 2.97-7.665 2.97-13.995 0-4.14-.39-7.575-1.17-10.305-.78-2.76-1.965-4.815-3.555-6.165-1.59-1.38-3.63-2.07-6.12-2.07Zm35.02 42.3v-5.805h7.38V624.42h-7.38v-5.805h13.14l1.395 11.205c1.83-3.9 4.05-6.915 6.66-9.045 2.61-2.13 6.06-3.195 10.35-3.195 1.32 0 2.49.105 3.51.315 1.05.18 2.115.42 3.195.72l-2.205 6.75c-.99-.27-1.89-.465-2.7-.585-.81-.15-1.74-.225-2.79-.225-3.63 0-6.75 1.29-9.36 3.87-2.61 2.58-4.695 6.48-6.255 11.7v20.07h9.63V666h-24.57Zm30.96-31.365V624.33l.765-5.715h6.525l-1.08 16.02h-6.21Zm40.6-17.01c4.47 0 8.205 1.02 11.205 3.06 3.03 2.01 5.295 4.86 6.795 8.55 1.53 3.69 2.295 8.04 2.295 13.05 0 4.83-.78 9.105-2.34 12.825-1.56 3.72-3.855 6.645-6.885 8.775-3 2.1-6.72 3.15-11.16 3.15s-8.175-1.02-11.205-3.06c-3.03-2.04-5.325-4.905-6.885-8.595-1.53-3.72-2.295-8.055-2.295-13.005 0-4.89.78-9.195 2.34-12.915 1.56-3.72 3.855-6.615 6.885-8.685 3.06-2.1 6.81-3.15 11.25-3.15Zm0 6.165c-4.08 0-7.17 1.515-9.27 4.545-2.07 3-3.105 7.68-3.105 14.04 0 6.24 1.02 10.875 3.06 13.905 2.07 3.03 5.145 4.545 9.225 4.545s7.14-1.515 9.18-4.545c2.07-3.03 3.105-7.695 3.105-13.995 0-6.3-1.02-10.95-3.06-13.95-2.04-3.03-5.085-4.545-9.135-4.545Zm66.924-5.175v39.78c0 5.28-1.185 9.69-3.555 13.23-2.37 3.57-5.805 6.435-10.305 8.595-4.5 2.16-9.945 3.78-16.335 4.86l-1.26-5.85c4.68-.78 8.82-1.95 12.42-3.51 3.6-1.56 6.405-3.705 8.415-6.435 2.04-2.7 3.06-6.165 3.06-10.395V624.6h-19.71v-5.985h27.27Zm-7.065-22.185c1.68 0 3.03.51 4.05 1.53s1.53 2.265 1.53 3.735c0 1.53-.51 2.82-1.53 3.87-1.02 1.02-2.37 1.53-4.05 1.53-1.62 0-2.925-.51-3.915-1.53-.99-1.05-1.485-2.34-1.485-3.87 0-1.47.495-2.715 1.485-3.735.99-1.02 2.295-1.53 3.915-1.53Zm35.965 48.555c.15 3.66.855 6.66 2.115 9 1.26 2.31 2.925 4.02 4.995 5.13 2.07 1.08 4.32 1.62 6.75 1.62 2.43 0 4.62-.36 6.57-1.08 1.98-.72 4.005-1.785 6.075-3.195l3.555 4.995c-2.22 1.74-4.755 3.105-7.605 4.095a26.037 26.037 0 0 1-8.685 1.485c-4.59 0-8.505-1.035-11.745-3.105-3.24-2.07-5.715-4.95-7.425-8.64-1.68-3.72-2.52-8.025-2.52-12.915 0-4.8.855-9.06 2.565-12.78 1.71-3.72 4.11-6.645 7.2-8.775 3.09-2.13 6.735-3.195 10.935-3.195 3.99 0 7.425.945 10.305 2.835 2.88 1.86 5.085 4.53 6.615 8.01 1.56 3.45 2.34 7.575 2.34 12.375 0 .81-.015 1.575-.045 2.295-.03.69-.075 1.305-.135 1.845h-31.86Zm12.87-21.15c-3.51 0-6.45 1.245-8.82 3.735-2.34 2.49-3.675 6.345-4.005 11.565h24.705c-.09-5.07-1.2-8.88-3.33-11.43-2.13-2.58-4.98-3.87-8.55-3.87Zm56.575 36.675c2.37 0 4.575-.39 6.615-1.17a26.44 26.44 0 0 0 5.715-2.97l3.69 4.95c-2.07 1.77-4.56 3.165-7.47 4.185-2.91 1.02-5.76 1.53-8.55 1.53-4.71 0-8.73-1.005-12.06-3.015-3.3-2.04-5.82-4.89-7.56-8.55-1.74-3.69-2.61-8.01-2.61-12.96 0-4.74.87-8.985 2.61-12.735 1.77-3.78 4.305-6.75 7.605-8.91 3.33-2.16 7.365-3.24 12.105-3.24 3.03 0 5.865.465 8.505 1.395a23 23 0 0 1 7.335 4.095l-3.69 5.04c-2.01-1.41-4.035-2.46-6.075-3.15a18.153 18.153 0 0 0-6.165-1.08c-4.08 0-7.44 1.53-10.08 4.59-2.64 3.06-3.96 7.725-3.96 13.995 0 4.2.6 7.635 1.8 10.305 1.23 2.64 2.895 4.59 4.995 5.85 2.13 1.23 4.545 1.845 7.245 1.845Zm70.165 3.105c-1.62 1.08-3.585 1.92-5.895 2.52-2.31.6-4.575.9-6.795.9-5.1 0-9.03-1.335-11.79-4.005s-4.14-6.105-4.14-10.305v-28.26h-10.89v-5.85h10.89V607.86l7.56-.9v11.655h16.38l-.9 5.85h-15.48v28.17c0 2.64.69 4.65 2.07 6.03 1.41 1.38 3.735 2.07 6.975 2.07 1.77 0 3.405-.21 4.905-.63 1.5-.42 2.895-.96 4.185-1.62l2.925 5.13Zm16.255-18.9v-6.57h36.09v6.57h-36.09Zm91.675 18.9c-1.62 1.08-3.585 1.92-5.895 2.52-2.31.6-4.575.9-6.795.9-5.1 0-9.03-1.335-11.79-4.005s-4.14-6.105-4.14-10.305v-28.26h-10.89v-5.85h10.89V607.86l7.56-.9v11.655h16.38l-.9 5.85h-15.48v28.17c0 2.64.69 4.65 2.07 6.03 1.41 1.38 3.735 2.07 6.975 2.07 1.77 0 3.405-.21 4.905-.63 1.5-.42 2.895-.96 4.185-1.62l2.925 5.13Zm22.284-18.63c.15 3.66.855 6.66 2.115 9 1.26 2.31 2.925 4.02 4.995 5.13 2.07 1.08 4.32 1.62 6.75 1.62 2.43 0 4.62-.36 6.57-1.08 1.98-.72 4.005-1.785 6.075-3.195l3.555 4.995c-2.22 1.74-4.755 3.105-7.605 4.095a26.037 26.037 0 0 1-8.685 1.485c-4.59 0-8.505-1.035-11.745-3.105-3.24-2.07-5.715-4.95-7.425-8.64-1.68-3.72-2.52-8.025-2.52-12.915 0-4.8.855-9.06 2.565-12.78 1.71-3.72 4.11-6.645 7.2-8.775 3.09-2.13 6.735-3.195 10.935-3.195 3.99 0 7.425.945 10.305 2.835 2.88 1.86 5.085 4.53 6.615 8.01 1.56 3.45 2.34 7.575 2.34 12.375 0 .81-.015 1.575-.045 2.295-.03.69-.075 1.305-.135 1.845h-31.86Zm12.87-21.15c-3.51 0-6.45 1.245-8.82 3.735-2.34 2.49-3.675 6.345-4.005 11.565h24.705c-.09-5.07-1.2-8.88-3.33-11.43-2.13-2.58-4.98-3.87-8.55-3.87Zm66.385-6.21c1.53 0 2.985.33 4.365.99 1.41.66 2.565 1.935 3.465 3.825.9 1.89 1.35 4.65 1.35 8.28V666h-7.02v-34.065c0-2.97-.18-5.115-.54-6.435-.36-1.32-1.395-1.98-3.105-1.98-1.41 0-2.82.45-4.23 1.35-1.38.87-2.73 2.31-4.05 4.32V666h-7.065v-34.065c0-2.97-.18-5.115-.54-6.435-.36-1.32-1.395-1.98-3.105-1.98-1.47 0-2.895.45-4.275 1.35-1.35.87-2.685 2.31-4.005 4.32V666h-6.975v-47.385h5.94l.45 5.49c1.29-1.83 2.73-3.36 4.32-4.59 1.62-1.26 3.615-1.89 5.985-1.89 1.8 0 3.495.435 5.085 1.305 1.59.84 2.76 2.49 3.51 4.95 1.29-1.86 2.745-3.36 4.365-4.5 1.62-1.17 3.645-1.755 6.075-1.755Zm43.93 0c4.2 0 7.545 1.02 10.035 3.06 2.52 2.04 4.335 4.92 5.445 8.64 1.11 3.69 1.665 8.01 1.665 12.96 0 4.77-.675 9.03-2.025 12.78-1.32 3.72-3.33 6.645-6.03 8.775-2.7 2.13-6.105 3.195-10.215 3.195-5.19 0-9.36-1.83-12.51-5.49v22.59l-7.56.945v-66.465h6.435l.63 6.615c1.74-2.43 3.81-4.305 6.21-5.625 2.43-1.32 5.07-1.98 7.92-1.98Zm-1.8 6.075c-2.61 0-4.92.795-6.93 2.385-1.98 1.56-3.615 3.3-4.905 5.22v23.49c1.23 1.83 2.775 3.285 4.635 4.365 1.89 1.05 3.96 1.575 6.21 1.575 3.93 0 6.885-1.5 8.865-4.5 1.98-3 2.97-7.665 2.97-13.995 0-4.14-.39-7.575-1.17-10.305-.78-2.76-1.965-4.815-3.555-6.165-1.59-1.38-3.63-2.07-6.12-2.07Zm53.02-24.165V654.3c0 2.34.72 4.005 2.16 4.995 1.47.96 3.36 1.44 5.67 1.44 1.44 0 2.805-.15 4.095-.45 1.29-.3 2.58-.705 3.87-1.215l2.025 5.535c-1.29.63-2.895 1.185-4.815 1.665-1.89.51-4.035.765-6.435.765-4.2 0-7.605-1.155-10.215-3.465-2.61-2.34-3.915-5.565-3.915-9.675V605.52h-14.535v-5.985h22.095Zm69.445 56.115c0 1.89.315 3.27.945 4.14.63.87 1.605 1.515 2.925 1.935l-1.845 5.31c-2.04-.27-3.825-.915-5.355-1.935-1.53-1.05-2.64-2.625-3.33-4.725a16.56 16.56 0 0 1-6.39 4.995c-2.55 1.11-5.37 1.665-8.46 1.665-4.74 0-8.475-1.335-11.205-4.005-2.73-2.67-4.095-6.21-4.095-10.62 0-4.89 1.905-8.64 5.715-11.25 3.81-2.61 9.315-3.915 16.515-3.915h6.975v-3.96c0-3.42-1.005-5.835-3.015-7.245-1.98-1.44-4.74-2.16-8.28-2.16-1.56 0-3.39.195-5.49.585-2.1.36-4.38.975-6.84 1.845l-1.98-5.715c2.91-1.08 5.64-1.845 8.19-2.295 2.55-.45 4.98-.675 7.29-.675 5.91 0 10.335 1.38 13.275 4.14 2.97 2.73 4.455 6.45 4.455 11.16v22.725Zm-19.575 5.625c2.34 0 4.575-.585 6.705-1.755 2.13-1.2 3.885-2.85 5.265-4.95v-12.195h-6.84c-5.22 0-8.91.9-11.07 2.7-2.13 1.8-3.195 4.215-3.195 7.245 0 2.94.75 5.175 2.25 6.705 1.53 1.5 3.825 2.25 6.885 2.25Zm77.23 2.34c-1.62 1.08-3.585 1.92-5.895 2.52-2.31.6-4.575.9-6.795.9-5.1 0-9.03-1.335-11.79-4.005s-4.14-6.105-4.14-10.305v-28.26h-10.89v-5.85h10.89V607.86l7.56-.9v11.655h16.38l-.9 5.85h-15.48v28.17c0 2.64.69 4.65 2.07 6.03 1.41 1.38 3.735 2.07 6.975 2.07 1.77 0 3.405-.21 4.905-.63 1.5-.42 2.895-.96 4.185-1.62l2.925 5.13Zm22.288-18.63c.15 3.66.85 6.66 2.11 9 1.26 2.31 2.93 4.02 5 5.13 2.07 1.08 4.32 1.62 6.75 1.62 2.43 0 4.62-.36 6.57-1.08 1.98-.72 4-1.785 6.07-3.195l3.56 4.995c-2.22 1.74-4.76 3.105-7.61 4.095-2.82.99-5.71 1.485-8.68 1.485-4.59 0-8.51-1.035-11.75-3.105-3.24-2.07-5.71-4.95-7.42-8.64-1.68-3.72-2.52-8.025-2.52-12.915 0-4.8.85-9.06 2.56-12.78 1.71-3.72 4.11-6.645 7.2-8.775 3.09-2.13 6.74-3.195 10.94-3.195 3.99 0 7.42.945 10.3 2.835 2.88 1.86 5.09 4.53 6.62 8.01 1.56 3.45 2.34 7.575 2.34 12.375 0 .81-.02 1.575-.05 2.295-.03.69-.07 1.305-.13 1.845h-31.86Zm12.87-21.15c-3.51 0-6.45 1.245-8.82 3.735-2.34 2.49-3.68 6.345-4.01 11.565h24.71c-.09-5.07-1.2-8.88-3.33-11.43-2.13-2.58-4.98-3.87-8.55-3.87Zm51.26 36.945c3.63 0 6.5-.675 8.6-2.025 2.13-1.38 3.19-3.21 3.19-5.49 0-1.44-.27-2.685-.81-3.735-.51-1.05-1.57-1.995-3.19-2.835-1.62-.84-4.11-1.68-7.47-2.52-3.27-.81-6.12-1.74-8.55-2.79-2.4-1.08-4.28-2.475-5.63-4.185-1.32-1.71-1.98-3.93-1.98-6.66 0-2.67.75-4.965 2.25-6.885 1.53-1.95 3.65-3.435 6.35-4.455 2.7-1.05 5.83-1.575 9.4-1.575 3.81 0 7.13.51 9.95 1.53 2.85.99 5.26 2.22 7.24 3.69l-3.33 5.13a26.317 26.317 0 0 0-5.94-3.015c-2.16-.81-4.77-1.215-7.83-1.215-3.72 0-6.36.585-7.92 1.755-1.56 1.14-2.34 2.625-2.34 4.455 0 1.38.38 2.535 1.13 3.465.78.9 2.08 1.725 3.91 2.475 1.83.72 4.35 1.515 7.56 2.385 3.09.81 5.78 1.785 8.06 2.925 2.31 1.14 4.11 2.64 5.4 4.5 1.29 1.86 1.93 4.26 1.93 7.2 0 3.36-.96 6.09-2.88 8.19-1.92 2.07-4.41 3.585-7.47 4.545-3.03.93-6.24 1.395-9.63 1.395-4.29 0-7.95-.615-10.98-1.845-3-1.26-5.52-2.775-7.56-4.545l4.32-4.995c1.86 1.53 3.99 2.775 6.39 3.735 2.43.93 5.04 1.395 7.83 1.395Z"
	/>
	<path
		fill="#000"
		stroke="#fff"
		stroke-width="6"
		d="M953 517.588H347V141h606z"
	/>
	<path
		fill="#000"
		stroke="#fff"
		stroke-width="6"
		d="M947 511.588H582.412V147H947zM576.412 511.588H353V288.176h223.412zM488.176 282.177H353V147.001h135.176zM576.412 229.235h-82.235V147h82.235zM576.412 282.177h-82.235v-46.941h82.235z"
	/>
</svg>
