<svg
	xmlns="http://www.w3.org/2000/svg"
	xml:space="preserve"
	fill-rule="evenodd"
	stroke-linejoin="round"
	stroke-miterlimit="2"
	clip-rule="evenodd"
	viewBox="0 0 500 300"
>
	<path
		fill="#ccc"
		d="M500 6c0-3.312-2.689-6-6-6H6C2.688 0 0 2.688 0 6v288c0 3.312 2.688 6 6 6h488c3.311 0 6-2.688 6-6V6Z"
	/>
	<path
		fill="#fff"
		d="M490.002 15c0-2.76-2.242-5-5.004-5H15a5 5 0 0 0-4.999 5v39.999a5 5 0 0 0 4.999 5h469.997a5.004 5.004 0 0 0 5.004-5v-40ZM490.001 76.599c0-3.642-2.96-6.6-6.602-6.6H166.6a6.603 6.603 0 0 0-6.598 6.6v206.8a6.6 6.6 0 0 0 6.598 6.6h316.8a6.604 6.604 0 0 0 6.602-6.6v-206.8ZM150.001 76.999c0-3.863-3.137-7-7-7H17c-3.864 0-7 3.137-7 7v206c0 3.862 3.136 7 7 7h126a7.005 7.005 0 0 0 7-7v-206Z"
	/>
</svg>
