<svg
	xmlns="http://www.w3.org/2000/svg"
	xml:space="preserve"
	style="
		fill-rule: evenodd;
		clip-rule: evenodd;
		stroke-linejoin: round;
		stroke-miterlimit: 2;
	"
	viewBox="0 0 300 38"
>
	<path
		d="M285.82 251.066v5.076c-1.901 0-3.461.318-4.68.954-1.218.636-1.744 1.826-1.578 3.57l1.024 11.292c.277 2.913-.175 5.051-1.357 6.415-1.181 1.364-2.889 2.252-5.123 2.662 2.327.431 4.057 1.297 5.193 2.6 1.135 1.302 1.564 3.461 1.287 6.477l-1.024 11.292c-.166 1.764.36 2.959 1.578 3.585 1.219.625 2.779.938 4.68.938v5.077c-2.566 0-4.795-.308-6.687-.923-1.893-.615-3.314-1.672-4.265-3.169-.951-1.498-1.297-3.549-1.039-6.154l1.025-10.616c.203-2.174-.295-3.774-1.495-4.8-1.2-1.025-3.397-1.538-6.591-1.538v-5.538c3.194 0 5.391-.503 6.591-1.508 1.2-1.005 1.698-2.605 1.495-4.8l-1.025-10.616c-.258-2.625.088-4.687 1.039-6.184.951-1.498 2.372-2.554 4.265-3.169 1.892-.616 4.121-.923 6.687-.923ZM356.325 300.85c-1.071.759-2.354 1.375-3.849 1.846a15.461 15.461 0 0 1-4.68.708c-3.397 0-5.977-.979-7.74-2.938s-2.645-4.539-2.645-7.739v-17.631h-6.508v-5.015h6.508v-7.262l6.203-.83v8.092h9.859l-.693 5.015h-9.166v17.57c0 1.743.392 3.041 1.177 3.892s2.072 1.277 3.863 1.277c1.071 0 2.054-.144 2.949-.431a11.888 11.888 0 0 0 2.479-1.108l2.243 4.554ZM376.789 254.173c1.219 0 2.202.41 2.95 1.231.747.821 1.121 1.846 1.121 3.077 0 1.231-.374 2.267-1.121 3.108-.748.841-1.731 1.261-2.95 1.261-1.181 0-2.15-.42-2.907-1.261-.757-.841-1.136-1.877-1.136-3.108s.379-2.256 1.136-3.077c.757-.821 1.726-1.231 2.907-1.231Zm4.32 15.908v27.446h7.948v5.046h-22.901v-5.046h8.75v-22.4h-8.473v-5.046h14.676ZM422.786 300.85c-1.07.759-2.353 1.375-3.849 1.846a15.452 15.452 0 0 1-4.68.708c-3.397 0-5.977-.979-7.74-2.938s-2.644-4.539-2.644-7.739v-17.631h-6.508v-5.015h6.508v-7.262l6.203-.83v8.092h9.858l-.692 5.015h-9.166v17.57c0 1.743.392 3.041 1.177 3.892.784.851 2.072 1.277 3.863 1.277 1.07 0 2.053-.144 2.949-.431a11.903 11.903 0 0 0 2.478-1.108l2.243 4.554ZM444.442 257.035v36.677c0 1.497.411 2.559 1.232 3.184.822.626 1.888.939 3.199.939.83 0 1.629-.098 2.395-.293a13.163 13.163 0 0 0 2.229-.784l1.579 4.8c-.868.492-1.934.923-3.199 1.292-1.264.369-2.709.554-4.334.554-2.935 0-5.22-.923-6.854-2.769-1.633-1.846-2.45-4.359-2.45-7.539v-30.984h-8.834v-5.077h15.037ZM469.974 288.542c.185 3.344 1.029 5.765 2.534 7.262 1.505 1.497 3.318 2.246 5.441 2.246 1.422 0 2.747-.246 3.974-.738 1.228-.493 2.46-1.19 3.697-2.093l2.686 4.123c-1.366 1.231-2.963 2.216-4.79 2.954-1.828.739-3.785 1.108-5.871 1.108-3.046 0-5.617-.718-7.712-2.154-2.096-1.436-3.684-3.436-4.764-6s-1.62-5.528-1.62-8.892c0-3.262.536-6.18 1.607-8.754 1.07-2.574 2.603-4.615 4.597-6.123 1.993-1.508 4.375-2.262 7.144-2.262 3.877 0 6.946 1.447 9.208 4.339 2.261 2.892 3.392 6.861 3.392 11.908 0 .553-.014 1.102-.041 1.646-.028.543-.06 1.02-.097 1.43h-19.385Zm6.979-14.215c-1.939 0-3.545.769-4.819 2.308-1.274 1.538-2.003 3.938-2.188 7.2h13.542c-.055-3.057-.642-5.405-1.759-7.046-1.116-1.641-2.709-2.462-4.776-2.462ZM540.119 252.85h5.649v56.062h-5.649zM610.596 257.035v36.677c0 1.497.41 2.559 1.232 3.184.821.626 1.888.939 3.198.939.831 0 1.63-.098 2.396-.293a13.163 13.163 0 0 0 2.229-.784l1.578 4.8c-.867.492-1.933.923-3.198 1.292s-2.709.554-4.334.554c-2.935 0-5.22-.923-6.854-2.769-1.634-1.846-2.45-4.359-2.45-7.539v-30.984h-8.834v-5.077h15.037ZM642.691 269.219c4.283 0 7.551 1.549 9.803 4.647 2.252 3.097 3.379 7.23 3.379 12.4 0 3.446-.513 6.451-1.537 9.015-1.025 2.564-2.52 4.559-4.487 5.985-1.966 1.425-4.361 2.138-7.186 2.138-4.264 0-7.532-1.533-9.803-4.6-2.271-3.067-3.406-7.226-3.406-12.477 0-3.364.512-6.333 1.537-8.908 1.025-2.574 2.525-4.584 4.5-6.03 1.975-1.447 4.375-2.17 7.2-2.17Zm0 5.354c-2.234 0-3.914.949-5.04 2.846-1.126 1.898-1.689 4.867-1.689 8.908 0 4.041.558 7.01 1.675 8.908 1.117 1.897 2.792 2.846 5.026 2.846s3.91-.954 5.026-2.862c1.117-1.907 1.676-4.892 1.676-8.953 0-4-.554-6.949-1.662-8.847-1.107-1.897-2.778-2.846-5.012-2.846ZM688.826 265.958l1.662 5.723c-1.163.431-2.442.718-3.835.861-1.394.144-2.95.216-4.667.216 1.754.861 3.074 1.964 3.96 3.308.887 1.343 1.33 2.989 1.33 4.938 0 2.113-.462 4-1.385 5.662-.923 1.661-2.248 2.964-3.974 3.907-1.726.944-3.78 1.416-6.161 1.416-.85 0-1.583-.041-2.202-.123a11.032 11.032 0 0 1-1.814-.4c-.867.635-1.301 1.528-1.301 2.676 0 .657.244 1.226.734 1.708.489.482 1.463.723 2.921.723h5.095c2.087 0 3.928.395 5.525 1.185 1.597.79 2.852 1.867 3.766 3.231.914 1.364 1.371 2.907 1.371 4.63 0 3.241-1.255 5.754-3.766 7.539-2.511 1.784-6.129 2.677-10.856 2.677-3.36 0-5.986-.38-7.878-1.139-1.892-.759-3.226-1.887-4.002-3.384-.775-1.498-1.163-3.334-1.163-5.508h5.567c0 1.149.198 2.092.595 2.831.397.738 1.14 1.287 2.229 1.646 1.089.359 2.659.538 4.708.538 3.046 0 5.197-.415 6.452-1.246 1.256-.831 1.883-1.995 1.883-3.492 0-1.333-.517-2.354-1.551-3.062-1.033-.707-2.418-1.061-4.153-1.061h-5.013c-2.769 0-4.795-.626-6.078-1.877-1.283-1.251-1.925-2.708-1.925-4.369 0-2.339 1.089-4.298 3.268-5.877-1.754-1.026-3.032-2.272-3.835-3.739-.804-1.466-1.205-3.246-1.205-5.338 0-2.298.517-4.308 1.551-6.031 1.034-1.723 2.469-3.067 4.306-4.031 1.837-.964 3.955-1.446 6.355-1.446 2.345.021 4.302-.113 5.871-.4 1.569-.287 2.94-.682 4.112-1.184a40.872 40.872 0 0 0 3.503-1.708Zm-13.43 8.031c-1.976 0-3.462.62-4.459 1.861-.997 1.241-1.495 2.857-1.495 4.846 0 2.052.507 3.698 1.523 4.939 1.015 1.241 2.52 1.861 4.514 1.861 1.827 0 3.226-.595 4.195-1.784.969-1.19 1.454-2.882 1.454-5.077 0-4.431-1.911-6.646-5.732-6.646ZM709.153 269.219c4.283 0 7.55 1.549 9.803 4.647 2.252 3.097 3.378 7.23 3.378 12.4 0 3.446-.512 6.451-1.537 9.015-1.024 2.564-2.52 4.559-4.486 5.985-1.966 1.425-4.362 2.138-7.186 2.138-4.265 0-7.532-1.533-9.803-4.6-2.271-3.067-3.406-7.226-3.406-12.477 0-3.364.512-6.333 1.537-8.908 1.024-2.574 2.524-4.584 4.5-6.03 1.975-1.447 4.375-2.17 7.2-2.17Zm0 5.354c-2.234 0-3.914.949-5.04 2.846-1.127 1.898-1.69 4.867-1.69 8.908 0 4.041.559 7.01 1.676 8.908 1.117 1.897 2.792 2.846 5.026 2.846s3.909-.954 5.026-2.862c1.117-1.907 1.675-4.892 1.675-8.953 0-4-.553-6.949-1.661-8.847-1.108-1.897-2.779-2.846-5.012-2.846ZM766.891 251.066c2.566 0 4.795.307 6.688.923 1.892.615 3.314 1.671 4.264 3.169.951 1.497 1.297 3.549 1.039 6.154l-1.025 10.646c-.203 2.195.342 3.795 1.634 4.8 1.292 1.005 3.443 1.508 6.452 1.508v5.538c-2.99 0-5.137.513-6.438 1.538-1.302 1.026-1.851 2.626-1.648 4.8l1.025 10.585c.258 2.626-.088 4.687-1.039 6.185-.95 1.497-2.372 2.554-4.264 3.169-1.893.615-4.122.923-6.688.923v-5.077c1.902 0 3.462-.313 4.68-.938 1.218-.626 1.745-1.821 1.578-3.585l-1.024-11.292c-.277-3.016.18-5.175 1.371-6.477 1.19-1.303 3.023-2.159 5.497-2.569-2.493-.431-4.33-1.329-5.511-2.693-1.182-1.364-1.634-3.502-1.357-6.415l1.024-11.292c.167-1.744-.36-2.934-1.578-3.57-1.218-.636-2.778-.954-4.68-.954v-5.076Z"
		style="fill-rule: nonzero"
		transform="matrix(.57784 0 0 .57784 -154.15 -145.076)"
	/>
</svg>
